<?xml version="1.0"?>
<svg xmlns="http://www.w3.org/2000/svg" width="50" height="50" viewBox="0 0 50 50">
    <path d="M 28.59375 0 C 28.39575 0.021625 28.18875 0.1135 28.03125 0.25 C 27.70525 0.533 20.071 7.2955 21 19.0625 C 21.042 19.5835 21 20 21 20 L 25.1875 20 C 25.0745 19.686 25 19.353 25 19 C 25 12.446 26.96325 7.7885 29.28125 4.5625 C 29.49925 2.5585 29.6815 1.166 29.6875 1.125 C 29.7455 0.712 29.5545 0.324 29.1875 0.125 C 29.004 0.026 28.79175 -0.021625 28.59375 0 z M 37.84375 0 C 37.737641 0.00709375 37.6335 0.0205 37.53125 0.0625 C 37.10125 0.2415 27 4.598 27 19 L 27 20 L 30.1875 20 C 30.0585 19.636 29.981 19.23575 30 18.84375 C 30.274 13.08075 33.5215 6.14425 37.8125 3.15625 C 38.3385 2.15425 38.70575 1.5815 38.71875 1.5625 C 38.96975 1.1975 38.9665 0.719 38.6875 0.375 C 38.479 0.117 38.162078 -0.02128125 37.84375 0 z M 19.4375 1.90625 C 19.22675 1.91775 19.01425 1.982 18.84375 2.125 C 18.50275 2.411 18.41475 2.9055 18.59375 3.3125 C 18.59975 3.3255 18.765 3.7435 19 4.4375 C 19.738 5.0535 20.4995 5.79725 21.1875 6.65625 C 21.5865 5.77025 22.0035 4.9315 22.4375 4.1875 C 21.5775 3.2545 20.6605 2.4615 20.0625 2.0625 C 19.878 1.9395 19.64825 1.89475 19.4375 1.90625 z M 11.9375 3.21875 C 11.614906 3.2748125 11.32475 3.46925 11.1875 3.78125 C 11.0035 4.19725 11.11275 4.68475 11.46875 4.96875 C 11.48275 4.97975 11.89675 5.34375 12.46875 6.09375 C 14.93275 8.00975 17.334 11.05075 19 15.46875 C 19.156 13.00975 19.6435 10.79275 20.3125 8.84375 C 17.1545 4.08775 12.322 3.23075 12.25 3.21875 C 12.13725 3.20025 12.045031 3.2000625 11.9375 3.21875 z M 41.4375 3.71875 C 36.7065 4.44675 32.298 12.6855 32 18.9375 C 31.987 19.2105 32 20 32 20 L 38.90625 20 C 38.90625 20 38.90625 19.552 38.90625 19 C 38.90625 12.425 42.464 5.22825 42.5 5.15625 C 42.667 4.82225 42.62725 4.427 42.40625 4.125 C 42.18625 3.823 41.8025 3.66075 41.4375 3.71875 z M 6.34375 5.5 C 6.0377969 5.5503438 5.77275 5.74325 5.625 6.03125 C 5.429 6.41425 5.47925 6.8805 5.78125 7.1875 C 5.83325 7.2405 11 12.583 11 19 C 11 19.552 10.96875 20 10.96875 20 L 17 20 L 18.15625 20 C 18.15625 20 18.15225 19.641 18.03125 19 C 18.00125 18.841 17.97425 18.6975 17.90625 18.5625 C 15.47125 9.8475 10.34125 6.067 6.65625 5.5 C 6.55125 5.4835 6.4457344 5.4832187 6.34375 5.5 z M 11 21 C 10.448 21 10 21.448 10 22 C 10 22.552 10.448 23 11 23 L 39 23 C 39.553 23 40 22.552 40 22 C 40 21.448 39.553 21 39 21 L 11 21 z M 11 24 C 10.448 24 10 24.448 10 25 C 10 25.552 10.448 26 11 26 L 39 26 C 39.553 26 40 25.552 40 25 C 40 24.448 39.553 24 39 24 L 11 24 z M 11 27 C 10.448 27 10 27.447 10 28 C 10 28.496074 10.371051 28.889436 10.84375 28.96875 C 8.4501067 38.478191 3.0556441 43.728535 3 43.78125 C 2.774 43.99725 2.68375 44.314 2.71875 44.625 C 2.75375 44.934 2.9195 45.18375 3.1875 45.34375 L 7.6875 48.0625 C 7.8485 48.1595 8.0125 48.1875 8.1875 48.1875 C 8.5255 48.1875 8.8745 48.02875 9.0625 47.71875 C 9.3406006 47.259835 15.745913 36.575338 15.96875 29 L 17.96875 29 C 17.777173 36.304643 12.500029 45.833327 11.0625 48.28125 C 11.0855 48.36325 11.11125 48.425 11.15625 48.5 C 11.29225 48.729 11.492 48.90475 11.75 48.96875 L 15.75 49.96875 C 15.832 49.98875 15.92 50 16 50 C 16.428 50 16.83575 49.7385 16.96875 49.3125 C 17.134078 48.783255 20.929078 36.530714 21 29 L 24.03125 29 L 26 49.09375 C 26.05 49.60575 26.485 50 27 50 L 31 50 C 31.007 49.999 31.02525 50 31.03125 50 C 31.08325 50 31.10625 49.97675 31.15625 49.96875 C 31.14725 49.94275 31.133 49.93225 31.125 49.90625 C 30.955828 49.366463 27.074122 36.879851 27 29 L 29 29 C 29.070922 36.530673 32.864944 48.782277 33.03125 49.3125 C 33.16425 49.7385 33.573 50 34 50 C 34.081 50 34.169 49.98875 34.25 49.96875 L 38.25 48.96875 C 38.509 48.90475 38.70675 48.729 38.84375 48.5 C 38.90075 48.405 38.94675 48.32575 38.96875 48.21875 C 37.67224 46.002168 32.271767 36.320136 32.03125 29 L 34.03125 29 C 34.30311 36.569502 40.658569 47.166966 40.9375 47.625 C 41.1245 47.935 41.4745 48.09375 41.8125 48.09375 C 41.9875 48.09375 42.1495 48.06575 42.3125 47.96875 L 46.8125 45.25 C 47.0815 45.089 47.24925 44.813 47.28125 44.5 C 47.31425 44.187 47.19875 43.87025 46.96875 43.65625 C 46.913106 43.604511 41.55661 38.50175 39.15625 28.96875 C 39.629505 28.889436 40 28.496074 40 28 C 40 27.447 39.553 27 39 27 L 11 27 z M 22.53125 34.25 C 21.52725 41.19 19.211 48.83225 18.875 49.90625 C 18.867 49.93025 18.85175 49.94575 18.84375 49.96875 C 18.89975 49.97975 18.943 50 19 50 L 23 50 C 23.515 50 23.95 49.60575 24 49.09375 L 22.53125 34.25 z"/>
</svg>
